<mxfile host="app.diagrams.net" modified="2021-02-24T08:31:07.497Z" agent="5.0 (Windows NT 10.0; Win64; x64) AppleWebKit/537.36 (KHTML, like Gecko) Chrome/84.0.4147.135 Safari/537.36" etag="xdRWLxNc9yrdZtYP-Qvx" version="14.4.2" type="github">
  <diagram id="O0SfKVnwEskuSrdrws-o" name="Page-1">
    <mxGraphModel dx="1422" dy="794" grid="1" gridSize="10" guides="1" tooltips="1" connect="1" arrows="1" fold="1" page="1" pageScale="1" pageWidth="1169" pageHeight="827" background="none" math="0" shadow="0">
      <root>
        <mxCell id="0" />
        <mxCell id="1" parent="0" />
        <mxCell id="-VETy3QZ_oPs1iATWBJH-16" value="Поставщик" style="swimlane;childLayout=stackLayout;horizontal=1;startSize=30;horizontalStack=0;rounded=1;fontSize=14;fontStyle=0;strokeWidth=2;resizeParent=0;resizeLast=1;shadow=0;dashed=0;align=center;fillColor=#e1d5e7;strokeColor=#9673a6;" vertex="1" parent="1">
          <mxGeometry x="80" y="85" width="330" height="115" as="geometry" />
        </mxCell>
        <mxCell id="-VETy3QZ_oPs1iATWBJH-17" value="- (S)код фирмы               pk, целое уникальное число&#xa;- (D)название фирмы     строка &lt;=255&#xa;- (D)телефон                   число, пробелы, тире, скобки&#xa;- (D)адрес                        строка &lt;=255, запитые, тире&#xa;- (D)e-mail                        строка&lt;=255, тире, @, точка " style="align=left;strokeColor=none;fillColor=none;spacingLeft=4;fontSize=12;verticalAlign=top;resizable=0;rotatable=0;part=1;fontColor=#171717;" vertex="1" parent="-VETy3QZ_oPs1iATWBJH-16">
          <mxGeometry y="30" width="330" height="85" as="geometry" />
        </mxCell>
        <mxCell id="-VETy3QZ_oPs1iATWBJH-31" value="Модель" style="swimlane;childLayout=stackLayout;horizontal=1;startSize=30;horizontalStack=0;rounded=1;fontSize=14;fontStyle=0;strokeWidth=2;resizeParent=0;resizeLast=1;shadow=0;dashed=0;align=center;fillColor=#e1d5e7;strokeColor=#9673a6;" vertex="1" parent="1">
          <mxGeometry x="100" y="470" width="310" height="120" as="geometry" />
        </mxCell>
        <mxCell id="-VETy3QZ_oPs1iATWBJH-32" value="- (S)код модели              pk, уникальное число&#xa;- (D)название модели    строка &lt;=255, кавычки, тире&#xa;- (D)цвет                          строка &lt;=255&#xa;- (S)мощность                число&#xa;- (D)цена                         денежный формат" style="align=left;strokeColor=none;fillColor=none;spacingLeft=4;fontSize=12;verticalAlign=top;resizable=0;rotatable=0;part=1;" vertex="1" parent="-VETy3QZ_oPs1iATWBJH-31">
          <mxGeometry y="30" width="310" height="90" as="geometry" />
        </mxCell>
        <mxCell id="-VETy3QZ_oPs1iATWBJH-35" value="Клиент" style="swimlane;childLayout=stackLayout;horizontal=1;startSize=30;horizontalStack=0;rounded=1;fontSize=14;fontStyle=0;strokeWidth=2;resizeParent=0;resizeLast=1;shadow=0;dashed=0;align=center;fillColor=#e1d5e7;strokeColor=#9673a6;" vertex="1" parent="1">
          <mxGeometry x="760" y="80" width="320" height="130" as="geometry" />
        </mxCell>
        <mxCell id="-VETy3QZ_oPs1iATWBJH-36" value="- (S)id-клиента             уникальное число&#xa;- (D)ФИО                      строка&lt;=255, пробел&#xa;- (S)дата покупки         формат даты&#xa;- (D)телефон                число, пробелы, тире, скобки&#xa;- (S)код модели            уникальное число&#xa;- (S)номер договора    уникальное число" style="align=left;strokeColor=none;fillColor=none;spacingLeft=4;fontSize=12;verticalAlign=top;resizable=0;rotatable=0;part=1;" vertex="1" parent="-VETy3QZ_oPs1iATWBJH-35">
          <mxGeometry y="30" width="320" height="100" as="geometry" />
        </mxCell>
        <mxCell id="-VETy3QZ_oPs1iATWBJH-40" value="Организация" style="swimlane;childLayout=stackLayout;horizontal=1;startSize=30;horizontalStack=0;rounded=1;fontSize=14;fontStyle=0;strokeWidth=2;resizeParent=0;resizeLast=1;shadow=0;dashed=0;align=center;fillColor=#e1d5e7;strokeColor=#9673a6;" vertex="1" parent="1">
          <mxGeometry x="400" y="230" width="340" height="130" as="geometry" />
        </mxCell>
        <mxCell id="-VETy3QZ_oPs1iATWBJH-41" value="- (S)ИНН                                  pk, уникальное число&#xa;- (D)название организации    строка &lt;=255, кавычки, тире&#xa;- (S)дата покупки                    формат даты&#xa;- (D)телефон                           число, пробелы, тире, скобки&#xa;- (S)код модели                       уникальное число&#xa;- (S)номер договора               уникальное число" style="align=left;strokeColor=none;fillColor=none;spacingLeft=4;fontSize=12;verticalAlign=top;resizable=0;rotatable=0;part=1;" vertex="1" parent="-VETy3QZ_oPs1iATWBJH-40">
          <mxGeometry y="30" width="340" height="100" as="geometry" />
        </mxCell>
        <mxCell id="-VETy3QZ_oPs1iATWBJH-43" value="Договор" style="swimlane;childLayout=stackLayout;horizontal=1;startSize=30;horizontalStack=0;rounded=1;fontSize=14;fontStyle=0;strokeWidth=2;resizeParent=0;resizeLast=1;shadow=0;dashed=0;align=center;fillColor=#e1d5e7;strokeColor=#9673a6;" vertex="1" parent="1">
          <mxGeometry x="540" y="540" width="320" height="130" as="geometry" />
        </mxCell>
        <mxCell id="-VETy3QZ_oPs1iATWBJH-44" value="- (S)номер договора   pk, уникальное число &#xa;- (S)дата договора      формат даты&#xa;- (S)код фирмы           уникальное число&#xa;- (S)код модели           уникальное число&#xa;- (S)id-клиента             уникальное число&#xa;- (S)ИНН                      уникальное число" style="align=left;strokeColor=none;fillColor=none;spacingLeft=4;fontSize=12;verticalAlign=top;resizable=0;rotatable=0;part=1;" vertex="1" parent="-VETy3QZ_oPs1iATWBJH-43">
          <mxGeometry y="30" width="320" height="100" as="geometry" />
        </mxCell>
        <mxCell id="-VETy3QZ_oPs1iATWBJH-46" style="edgeStyle=orthogonalEdgeStyle;rounded=0;orthogonalLoop=1;jettySize=auto;html=1;entryX=0;entryY=0.177;entryDx=0;entryDy=0;entryPerimeter=0;startArrow=ERone;startFill=0;endArrow=ERmany;endFill=0;sketch=1;" edge="1" parent="1" source="-VETy3QZ_oPs1iATWBJH-17" target="-VETy3QZ_oPs1iATWBJH-35">
          <mxGeometry relative="1" as="geometry" />
        </mxCell>
        <mxCell id="-VETy3QZ_oPs1iATWBJH-47" style="rounded=0;orthogonalLoop=1;jettySize=auto;html=1;entryX=0;entryY=0.5;entryDx=0;entryDy=0;startArrow=ERone;startFill=0;endArrow=ERmany;endFill=0;jumpStyle=none;sketch=1;edgeStyle=orthogonalEdgeStyle;" edge="1" parent="1" source="-VETy3QZ_oPs1iATWBJH-41" target="-VETy3QZ_oPs1iATWBJH-44">
          <mxGeometry relative="1" as="geometry" />
        </mxCell>
        <mxCell id="-VETy3QZ_oPs1iATWBJH-48" style="edgeStyle=orthogonalEdgeStyle;rounded=0;orthogonalLoop=1;jettySize=auto;html=1;entryX=1;entryY=0.5;entryDx=0;entryDy=0;startArrow=ERone;startFill=0;endArrow=ERmany;endFill=0;sketch=1;" edge="1" parent="1" source="-VETy3QZ_oPs1iATWBJH-36" target="-VETy3QZ_oPs1iATWBJH-44">
          <mxGeometry relative="1" as="geometry" />
        </mxCell>
        <mxCell id="-VETy3QZ_oPs1iATWBJH-49" style="edgeStyle=orthogonalEdgeStyle;rounded=0;orthogonalLoop=1;jettySize=auto;html=1;entryX=0.5;entryY=1;entryDx=0;entryDy=0;startArrow=ERone;startFill=0;endArrow=ERone;endFill=0;sketch=1;" edge="1" parent="1" source="-VETy3QZ_oPs1iATWBJH-32" target="-VETy3QZ_oPs1iATWBJH-44">
          <mxGeometry relative="1" as="geometry" />
        </mxCell>
        <mxCell id="-VETy3QZ_oPs1iATWBJH-50" style="edgeStyle=orthogonalEdgeStyle;rounded=0;orthogonalLoop=1;jettySize=auto;html=1;entryX=0;entryY=0.5;entryDx=0;entryDy=0;startArrow=ERone;startFill=0;endArrow=ERmany;endFill=0;sketch=1;" edge="1" parent="1" source="-VETy3QZ_oPs1iATWBJH-17" target="-VETy3QZ_oPs1iATWBJH-41">
          <mxGeometry relative="1" as="geometry" />
        </mxCell>
      </root>
    </mxGraphModel>
  </diagram>
</mxfile>
